<?xml version="1.0" standalone="no"?><!DOCTYPE svg PUBLIC "-//W3C//DTD SVG 1.1//EN" "http://www.w3.org/Graphics/SVG/1.1/DTD/svg11.dtd"><svg t="1708432492997" class="icon" viewBox="0 0 1024 1024" version="1.1" xmlns="http://www.w3.org/2000/svg" p-id="15444" xmlns:xlink="http://www.w3.org/1999/xlink" width="16" height="16"><path d="M739.76 462H484.2a22.22 22.22 0 0 0-22.2 22.21v55.56A22.24 22.24 0 0 0 484.19 562h155.57A22.22 22.22 0 0 1 662 584.22v11.11A66.67 66.67 0 0 1 595.31 662H384.19A22.22 22.22 0 0 1 362 639.79V428.68A66.67 66.67 0 0 1 428.64 362h311.07a22.21 22.21 0 0 0 22.22-22.2v-55.56A22.22 22.22 0 0 0 739.79 262h-311.1A166.67 166.67 0 0 0 262 428.68v311.1A22.22 22.22 0 0 0 284.22 762H612a150 150 0 0 0 150-150V484.23A22.23 22.23 0 0 0 739.77 462z m0 0" fill="#2c2c2c" p-id="15445"></path></svg>