<?xml version="1.0" standalone="no"?><!DOCTYPE svg PUBLIC "-//W3C//DTD SVG 1.1//EN" "http://www.w3.org/Graphics/SVG/1.1/DTD/svg11.dtd"><svg t="1708433921420" class="icon" viewBox="0 0 1024 1024" version="1.1" xmlns="http://www.w3.org/2000/svg" p-id="26286" xmlns:xlink="http://www.w3.org/1999/xlink" width="16" height="16"><path d="M896 0 128 0C57.408 0 0 57.408 0 128l0 640c0 70.592 57.408 128 128 128l768 0c70.592 0 128-57.408 128-128L1024 128C1024 57.408 966.592 0 896 0zM960 768c0 35.328-28.672 64-64 64L128 832c-35.264 0-64-28.672-64-64L64 320l896 0L960 768zM960 256 64 256 64 128c0-35.264 28.736-64 64-64l768 0c35.328 0 64 28.736 64 64L960 256zM192 128l64 0 0 64L192 192 192 128zM320 128l64 0 0 64L320 192 320 128zM832 512 192 512 192 448l640 0L832 512zM832 704 192 704l0-64 640 0L832 704z" fill="#2c2c2c" p-id="26287"></path></svg>