<?xml version="1.0" standalone="no"?><!DOCTYPE svg PUBLIC "-//W3C//DTD SVG 1.1//EN" "http://www.w3.org/Graphics/SVG/1.1/DTD/svg11.dtd"><svg t="1708432397311" class="icon" viewBox="0 0 1024 1024" version="1.1" xmlns="http://www.w3.org/2000/svg" p-id="12866" xmlns:xlink="http://www.w3.org/1999/xlink" width="16" height="16"><path d="M512 1005.141333a486.912 486.912 0 0 1-191.573333-38.826666A496.981333 496.981333 0 0 1 57.685333 703.658667a490.496 490.496 0 0 1 0.085334-383.232 492.544 492.544 0 0 1 105.898666-156.757334A493.482667 493.482667 0 0 1 512 18.773333c66.218667 0 130.645333 13.141333 191.658667 38.997334a496.298667 496.298667 0 0 1 262.656 262.656c25.770667 60.586667 38.997333 125.781333 38.826666 191.573333 0 66.218667-12.970667 130.645333-38.826666 191.658667a498.176 498.176 0 0 1-262.656 262.656A487.338667 487.338667 0 0 1 512 1005.141333zM512 80.384c-58.026667 0-114.346667 11.434667-167.509333 34.048a433.066667 433.066667 0 0 0-137.216 92.842667 431.616 431.616 0 0 0-92.842667 137.216C91.904 397.397333 80.298667 454.485333 80.384 512c0 58.112 11.434667 114.346667 34.048 167.594667 21.76 51.2 53.333333 97.792 92.757333 137.130666a431.616 431.616 0 0 0 137.216 92.842667c52.906667 22.613333 109.994667 33.962667 167.509334 33.962667A427.264 427.264 0 0 0 816.64 816.725333a434.176 434.176 0 0 0 92.842667-137.130666 424.96 424.96 0 0 0 34.133333-167.594667c0-58.026667-11.434667-114.346667-33.962667-167.509333a433.493333 433.493333 0 0 0-92.842666-137.216 435.456 435.456 0 0 0-137.216-92.842667A426.496 426.496 0 0 0 512 80.384z m138.24 607.658667H371.797333a36.949333 36.949333 0 0 1-36.864-36.949334V372.565333c0-20.309333 16.554667-36.864 36.864-36.864H650.24c20.394667 0 36.864 16.554667 36.864 36.864V651.093333a36.949333 36.949333 0 0 1-36.864 36.949334z m-265.813333-49.578667h253.269333V385.194667H384.426667v253.269333z" fill="#2c2c2c" p-id="12867"></path></svg>