<?xml version="1.0" standalone="no"?><!DOCTYPE svg PUBLIC "-//W3C//DTD SVG 1.1//EN" "http://www.w3.org/Graphics/SVG/1.1/DTD/svg11.dtd"><svg t="1708608655449" class="icon" viewBox="0 0 1024 1024" version="1.1" xmlns="http://www.w3.org/2000/svg" p-id="3040" xmlns:xlink="http://www.w3.org/1999/xlink" width="16" height="16"><path d="M966.656 1006.592H66.048v-181.76l2.56-6.656c17.92-50.688 47.104-94.72 83.968-126.464 10.24-8.704 20.992-16.384 32.256-23.552 69.12-47.616 132.608-83.456 206.336-101.888-97.792-44.544-166.4-142.848-166.4-257.536 0-155.648 126.464-282.112 282.112-282.112s282.112 126.464 282.112 282.112c0 112.128-65.536 208.896-160.768 254.464 80.384 17.92 147.456 55.808 221.184 107.008 8.704 5.632 16.896 11.776 25.6 18.944 39.936 33.792 71.168 80.896 89.6 136.192l2.048 6.144v175.104z m-818.688-81.92h736.768v-79.36c-13.824-38.4-35.328-70.656-62.464-93.184-5.632-4.608-11.776-9.216-17.408-12.8l-1.536-1.024c-94.72-66.56-172.544-104.96-288.256-104.96-114.176 0-190.976 37.888-285.184 102.912l-2.048 1.536a159.149 159.149 0 0 0-22.016 15.872c-24.576 21.504-44.544 50.688-57.856 85.504v85.504zM506.88 108.544c-110.592 0-200.192 90.112-200.192 200.192S396.8 508.928 506.88 508.928s200.192-90.112 200.192-200.192-89.6-200.192-200.192-200.192z" p-id="3041" fill="#ffffff"></path></svg>