<?xml version="1.0" standalone="no"?><!DOCTYPE svg PUBLIC "-//W3C//DTD SVG 1.1//EN" "http://www.w3.org/Graphics/SVG/1.1/DTD/svg11.dtd"><svg t="1708432609584" class="icon" viewBox="0 0 1024 1024" version="1.1" xmlns="http://www.w3.org/2000/svg" p-id="23987" xmlns:xlink="http://www.w3.org/1999/xlink" width="16" height="16"><path d="M512.810667 655.36l1.408 0.085333 1.706666 0.170667 2.090667 0.298667a31.829333 31.829333 0 0 1 9.130667 3.242666l3.882666 2.474667 3.584 3.114667L640 770.133333a32 32 0 0 1-41.642667 48.341334l-3.584-3.114667-50.773333-50.730667v142.037334a32 32 0 0 1-63.701333 4.352l-0.298667-4.352v-142.08l-50.773333 50.773333a32 32 0 0 1-48.341334-41.642667L384 770.133333l105.386667-105.386666 3.072-2.730667 2.261333-1.578667a31.744 31.744 0 0 1 16.938667-5.077333h1.152zM753.066667 85.333333a141.653333 141.653333 0 0 1 89.642666 251.349334 141.653333 141.653333 0 0 1-81.621333 251.050666l-8.021333 0.213334H270.506667a141.653333 141.653333 0 0 1-89.642667-251.349334 141.653333 141.653333 0 0 1 81.621333-251.050666L270.506667 85.333333h482.56z m0 283.306667H270.506667a77.653333 77.653333 0 0 0-6.4 155.050667l6.4 0.256h482.56a77.653333 77.653333 0 1 0 0-155.306667z m-437.76 34.986667c2.56 0.426667 5.12 1.28 8.106666 2.56a29.866667 29.866667 0 0 1 7.253334 3.84l6.4 5.12c3.84 4.266667 6.826667 9.386667 9.813333 14.506666 2.133333 5.12 2.986667 11.093333 2.986667 16.64 0 11.946667-4.266667 22.613333-12.8 31.146667-7.253333 8.106667-17.92 12.8-29.866667 12.8-11.946667 0-22.613333-4.266667-30.72-12.8a43.264 43.264 0 0 1 6.4-67.413333c2.133333-1.706667 4.693333-2.986667 7.253333-3.84 2.56-1.28 5.12-2.133333 8.106667-2.56a38.4 38.4 0 0 1 17.066667 0z m430.506666 10.666666a32 32 0 0 1 4.352 63.701334l-4.352 0.298666h-116.906666a32 32 0 0 1-4.352-63.701333l4.352-0.298667h116.906666z m7.253334-264.96H270.506667a77.653333 77.653333 0 0 0-6.4 155.050667l6.4 0.256h482.56a77.653333 77.653333 0 1 0 0-155.306667z m-436.906667 34.56c2.56 0.426667 5.12 1.28 8.106667 2.56a29.866667 29.866667 0 0 1 7.253333 3.84c2.133333 1.28 4.266667 3.413333 6.4 5.12 3.84 4.266667 7.253333 8.96 9.813333 14.506667 2.133333 5.12 2.986667 11.093333 2.986667 16.64s-0.853333 11.52-2.986667 16.64-5.546667 10.24-9.813333 14.506667c-8.106667 8.106667-18.773333 13.226667-30.72 13.226666-11.946667 0-22.613333-4.693333-30.72-12.8a43.264 43.264 0 0 1-9.813333-47.786666c2.133333-5.546667 5.12-10.24 9.813333-14.506667 9.813333-10.24 25.173333-14.933333 39.68-11.946667z m429.653333 11.093334a32 32 0 0 1 4.352 63.701333l-4.352 0.298667h-116.906666a32 32 0 0 1-4.352-63.701334l4.352-0.298666h116.906666z" fill="#ffffff" p-id="23988"></path></svg>