<?xml version="1.0" standalone="no"?><!DOCTYPE svg PUBLIC "-//W3C//DTD SVG 1.1//EN" "http://www.w3.org/Graphics/SVG/1.1/DTD/svg11.dtd"><svg t="1708432220959" class="icon" viewBox="0 0 1024 1024" version="1.1" xmlns="http://www.w3.org/2000/svg" p-id="7068" xmlns:xlink="http://www.w3.org/1999/xlink" width="16" height="16"><path d="M1024 24.32c0-2.56 0-3.84-1.28-6.4v-1.28c-1.28-1.28-1.28-3.84-2.56-5.12V10.24l-3.84-3.84h-1.28-1.28c-1.28-1.28-2.56-2.56-5.12-2.56h-1.28c-2.56-2.56-3.84-3.84-6.4-3.84h-6.4-1.28c-2.56 0-3.84 1.28-6.4 2.56l-972.8 497.92c-7.68 3.84-14.08 12.8-14.08 21.76s3.84 17.92 11.52 23.04L341.76 755.2l1.28 243.2c0 11.52 7.68 21.76 17.92 24.32 2.56 1.28 5.12 1.28 7.68 1.28 8.96 0 16.64-3.84 21.76-11.52l103.68-161.28 264.96 168.96c3.84 2.56 8.96 3.84 14.08 3.84 3.84 0 6.4 0 10.24-1.28 7.68-2.56 12.8-10.24 15.36-17.92L1024 32v-1.28-6.4zM889.6 110.08L362.24 706.56 76.8 526.08 889.6 110.08zM394.24 912.64v-125.44l57.6 37.12-57.6 88.32z m362.24 44.8L405.76 734.72 951.04 117.76 756.48 957.44z" fill="#ffffff" p-id="7069"></path></svg>